{
  "accessors": [
    {
      "bufferView": 2,
      "componentType": 5126,
      "count": 11413,
      "max": [
        4.486546516418457,
        2.3200347423553467,
        5.833610534667969
      ],
      "min": [
        -5.307893753051758,
        0.3631099462509155,
        -5.05373477935791
      ],
      "type": "VEC3"
    },
    {
      "bufferView": 2,
      "byteOffset": 136956,
      "componentType": 5126,
      "count": 11413,
      "max": [
        0.9998546838760376,
        0.999492883682251,
        0.9999630451202393
      ],
      "min": [
        -0.9999985694885254,
        -0.9994460344314575,
        -0.9999983310699463
      ],
      "type": "VEC3"
    },
    {
      "bufferView": 1,
      "componentType": 5126,
      "count": 11413,
      "max": [
        1.0,
        1.0
      ],
      "min": [
        0.0,
        0.0
      ],
      "type": "VEC2"
    },
    {
      "bufferView": 0,
      "componentType": 5125,
      "count": 57462,
      "type": "SCALAR"
    },
    {
      "bufferView": 2,
      "byteOffset": 273912,
      "componentType": 5126,
      "count": 4752,
      "max": [
        3.898158311843872,
        6.945014476776123,
        3.848233461380005
      ],
      "min": [
        -3.894622564315796,
        3.528517007827759,
        -3.8397116661071777
      ],
      "type": "VEC3"
    },
    {
      "bufferView": 2,
      "byteOffset": 330936,
      "componentType": 5126,
      "count": 4752,
      "max": [
        1.0,
        1.0,
        1.0
      ],
      "min": [
        -1.0,
        -1.0,
        -1.0
      ],
      "type": "VEC3"
    },
    {
      "bufferView": 3,
      "componentType": 5126,
      "count": 4752,
      "max": [
        1.0,
        0.31846490502357483,
        1.0,
        1.0
      ],
      "min": [
        -1.0,
        -0.3956575393676758,
        -1.0,
        -1.0
      ],
      "type": "VEC4"
    },
    {
      "bufferView": 1,
      "byteOffset": 91304,
      "componentType": 5126,
      "count": 4752,
      "max": [
        1.766778826713562,
        1.3256179094314575
      ],
      "min": [
        -0.0006130338297225535,
        0.10167288780212402
      ],
      "type": "VEC2"
    },
    {
      "bufferView": 1,
      "byteOffset": 129320,
      "componentType": 5126,
      "count": 4752,
      "max": [
        1.766778826713562,
        1.3256179094314575
      ],
      "min": [
        -0.0006130338297225535,
        0.10167288780212402
      ],
      "type": "VEC2"
    },
    {
      "bufferView": 0,
      "byteOffset": 229848,
      "componentType": 5125,
      "count": 20160,
      "type": "SCALAR"
    },
    {
      "bufferView": 2,
      "byteOffset": 387960,
      "componentType": 5126,
      "count": 1295,
      "max": [
        4.005403995513916,
        4.489615440368652,
        3.956205368041992
      ],
      "min": [
        -3.9991986751556396,
        3.390101671218872,
        -3.946625232696533
      ],
      "type": "VEC3"
    },
    {
      "bufferView": 2,
      "byteOffset": 403500,
      "componentType": 5126,
      "count": 1295,
      "max": [
        0.9972924590110779,
        0.9998881816864014,
        0.9997103214263916
      ],
      "min": [
        -0.9972950220108032,
        -0.9996269941329956,
        -0.9997755289077759
      ],
      "type": "VEC3"
    },
    {
      "bufferView": 3,
      "byteOffset": 76032,
      "componentType": 5126,
      "count": 1295,
      "max": [
        0.9998165369033813,
        0.28053951263427734,
        0.9942446351051331,
        1.0
      ],
      "min": [
        -0.9999993443489075,
        -0.24886499345302582,
        -1.0,
        1.0
      ],
      "type": "VEC4"
    },
    {
      "bufferView": 1,
      "byteOffset": 167336,
      "componentType": 5126,
      "count": 1295,
      "max": [
        0.998482346534729,
        0.6997054219245911
      ],
      "min": [
        0.001725226640701294,
        0.38609814643859863
      ],
      "type": "VEC2"
    },
    {
      "bufferView": 1,
      "byteOffset": 177696,
      "componentType": 5126,
      "count": 1295,
      "max": [
        0.998482346534729,
        0.6997054219245911
      ],
      "min": [
        0.001725226640701294,
        0.38609814643859863
      ],
      "type": "VEC2"
    },
    {
      "bufferView": 0,
      "byteOffset": 310488,
      "componentType": 5125,
      "count": 6144,
      "type": "SCALAR"
    },
    {
      "bufferView": 2,
      "byteOffset": 419040,
      "componentType": 5126,
      "count": 1572,
      "max": [
        1.8558310270309448,
        4.927293300628662,
        1.9212138652801514
      ],
      "min": [
        -1.873839259147644,
        4.17011022567749,
        -1.8447742462158203
      ],
      "type": "VEC3"
    },
    {
      "bufferView": 2,
      "byteOffset": 437904,
      "componentType": 5126,
      "count": 1572,
      "max": [
        0.9998376369476318,
        0.9968494772911072,
        0.9995248317718506
      ],
      "min": [
        -0.9999102354049683,
        -0.9933700561523438,
        -0.9997904300689697
      ],
      "type": "VEC3"
    },
    {
      "bufferView": 3,
      "byteOffset": 96752,
      "componentType": 5126,
      "count": 1572,
      "max": [
        0.9993839263916016,
        0.08631615340709686,
        0.9991381168365479,
        1.0
      ],
      "min": [
        -0.9991315603256226,
        -0.35407719016075134,
        -0.9999474287033081,
        1.0
      ],
      "type": "VEC4"
    },
    {
      "bufferView": 1,
      "byteOffset": 188056,
      "componentType": 5126,
      "count": 1572,
      "max": [
        0.9844721555709839,
        0.9664188623428345
      ],
      "min": [
        0.014949234202504158,
        -0.003104299772530794
      ],
      "type": "VEC2"
    },
    {
      "bufferView": 0,
      "byteOffset": 335064,
      "componentType": 5125,
      "count": 7680,
      "type": "SCALAR"
    },
    {
      "bufferView": 2,
      "byteOffset": 456768,
      "componentType": 5126,
      "count": 372,
      "max": [
        0.36707866191864014,
        5.385700702667236,
        1.8983285427093506
      ],
      "min": [
        -0.36774396896362305,
        4.684404373168945,
        1.7428537607192993
      ],
      "type": "VEC3"
    },
    {
      "bufferView": 2,
      "byteOffset": 461232,
      "componentType": 5126,
      "count": 372,
      "max": [
        0.9838390350341797,
        0.99716717004776,
        0.9999978542327881
      ],
      "min": [
        -0.7824673056602478,
        -0.88995760679245,
        -0.9999979138374329
      ],
      "type": "VEC3"
    },
    {
      "bufferView": 1,
      "byteOffset": 200632,
      "componentType": 5126,
      "count": 372,
      "max": [
        0.9774428009986877,
        0.9922904968261719
      ],
      "min": [
        0.020731240510940552,
        0.02128499746322632
      ],
      "type": "VEC2"
    },
    {
      "bufferView": 0,
      "byteOffset": 365784,
      "componentType": 5125,
      "count": 1500,
      "type": "SCALAR"
    },
    {
      "bufferView": 2,
      "byteOffset": 465696,
      "componentType": 5126,
      "count": 3022,
      "max": [
        1.6235082149505615,
        7.146839141845703,
        1.7067458629608154
      ],
      "min": [
        -1.6494221687316895,
        5.555401802062988,
        -1.67738676071167
      ],
      "type": "VEC3"
    },
    {
      "bufferView": 2,
      "byteOffset": 501960,
      "componentType": 5126,
      "count": 3022,
      "max": [
        0.9997460246086121,
        0.999975323677063,
        0.9969608187675476
      ],
      "min": [
        -0.9991674423217773,
        -0.2798546552658081,
        -0.9997413158416748
      ],
      "type": "VEC3"
    },
    {
      "bufferView": 3,
      "byteOffset": 121904,
      "componentType": 5126,
      "count": 3022,
      "max": [
        0.4638959765434265,
        0.9991536736488342,
        0.8617189526557922,
        1.0
      ],
      "min": [
        -0.9884926080703735,
        -0.9999449253082275,
        -0.9408277273178101,
        1.0
      ],
      "type": "VEC4"
    },
    {
      "bufferView": 1,
      "byteOffset": 203608,
      "componentType": 5126,
      "count": 3022,
      "max": [
        0.9928305149078369,
        0.9833178520202637
      ],
      "min": [
        0.0071694254875183105,
        0.007101684808731079
      ],
      "type": "VEC2"
    },
    {
      "bufferView": 1,
      "byteOffset": 227784,
      "componentType": 5126,
      "count": 3022,
      "max": [
        0.9928305149078369,
        0.9833178520202637
      ],
      "min": [
        0.0071694254875183105,
        0.007101684808731079
      ],
      "type": "VEC2"
    },
    {
      "bufferView": 0,
      "byteOffset": 371784,
      "componentType": 5125,
      "count": 17358,
      "type": "SCALAR"
    },
    {
      "bufferView": 2,
      "byteOffset": 538224,
      "componentType": 5126,
      "count": 7218,
      "max": [
        3.6282076835632324,
        4.849201202392578,
        3.604654312133789
      ],
      "min": [
        -3.512580633163452,
        3.6594481468200684,
        -3.374174118041992
      ],
      "type": "VEC3"
    },
    {
      "bufferView": 2,
      "byteOffset": 624840,
      "componentType": 5126,
      "count": 7218,
      "max": [
        0.99973064661026,
        0.9999751448631287,
        0.9999358057975769
      ],
      "min": [
        -0.9999885559082031,
        -0.47431638836860657,
        -0.9995906949043274
      ],
      "type": "VEC3"
    },
    {
      "bufferView": 3,
      "byteOffset": 170256,
      "componentType": 5126,
      "count": 7218,
      "max": [
        0.9890450835227966,
        0.9996335506439209,
        0.9999620318412781,
        1.0
      ],
      "min": [
        -0.9634453058242798,
        -0.9993481040000916,
        -0.9986199736595154,
        1.0
      ],
      "type": "VEC4"
    },
    {
      "bufferView": 1,
      "byteOffset": 251960,
      "componentType": 5126,
      "count": 7218,
      "max": [
        0.9924771785736084,
        0.9898226261138916
      ],
      "min": [
        0.008869245648384094,
        0.016377776861190796
      ],
      "type": "VEC2"
    },
    {
      "bufferView": 1,
      "byteOffset": 309704,
      "componentType": 5126,
      "count": 7218,
      "max": [
        0.9924771785736084,
        0.9898226261138916
      ],
      "min": [
        0.008869245648384094,
        0.016377776861190796
      ],
      "type": "VEC2"
    },
    {
      "bufferView": 0,
      "byteOffset": 441216,
      "componentType": 5125,
      "count": 41022,
      "type": "SCALAR"
    },
    {
      "bufferView": 2,
      "byteOffset": 711456,
      "componentType": 5126,
      "count": 1346,
      "max": [
        5.998039722442627,
        1.0497328042984009,
        5.951247692108154
      ],
      "min": [
        -5.984886169433594,
        -0.0091560622677207,
        -6.031676292419434
      ],
      "type": "VEC3"
    },
    {
      "bufferView": 2,
      "byteOffset": 727608,
      "componentType": 5126,
      "count": 1346,
      "max": [
        0.9734439849853516,
        0.9999958276748657,
        0.9734439849853516
      ],
      "min": [
        -0.9734439849853516,
        -1.0,
        -0.9734508395195007
      ],
      "type": "VEC3"
    },
    {
      "bufferView": 3,
      "byteOffset": 285744,
      "componentType": 5126,
      "count": 1346,
      "max": [
        0.8822195529937744,
        0.9412670135498047,
        0.9976634979248047,
        1.0
      ],
      "min": [
        -0.9993876814842224,
        -0.9396514296531677,
        -0.7606683969497681,
        1.0
      ],
      "type": "VEC4"
    },
    {
      "bufferView": 1,
      "byteOffset": 367448,
      "componentType": 5126,
      "count": 1346,
      "max": [
        0.9937527775764465,
        0.9930104613304138
      ],
      "min": [
        0.006699342280626297,
        0.006802398711442947
      ],
      "type": "VEC2"
    },
    {
      "bufferView": 1,
      "byteOffset": 378216,
      "componentType": 5126,
      "count": 1346,
      "max": [
        0.9937527775764465,
        0.9930104613304138
      ],
      "min": [
        0.006699342280626297,
        0.006802398711442947
      ],
      "type": "VEC2"
    },
    {
      "bufferView": 0,
      "byteOffset": 605304,
      "componentType": 5125,
      "count": 7680,
      "type": "SCALAR"
    },
    {
      "bufferView": 2,
      "byteOffset": 743760,
      "componentType": 5126,
      "count": 10035,
      "max": [
        3.121379852294922,
        5.581509113311768,
        2.82607102394104
      ],
      "min": [
        -3.0049848556518555,
        0.7910423278808594,
        -2.871654510498047
      ],
      "type": "VEC3"
    },
    {
      "bufferView": 2,
      "byteOffset": 864180,
      "componentType": 5126,
      "count": 10035,
      "max": [
        0.9996411204338074,
        0.8643738627433777,
        0.9997696876525879
      ],
      "min": [
        -0.9985299706459045,
        -1.0,
        -0.9999831914901733
      ],
      "type": "VEC3"
    },
    {
      "bufferView": 3,
      "byteOffset": 307280,
      "componentType": 5126,
      "count": 10035,
      "max": [
        1.0,
        0.262957900762558,
        1.0,
        1.0
      ],
      "min": [
        -1.0,
        -0.32815539836883545,
        -1.0,
        1.0
      ],
      "type": "VEC4"
    },
    {
      "bufferView": 1,
      "byteOffset": 388984,
      "componentType": 5126,
      "count": 10035,
      "max": [
        0.9999997615814209,
        0.988732099533081
      ],
      "min": [
        3.1292443054553587e-06,
        0.0471026748418808
      ],
      "type": "VEC2"
    },
    {
      "bufferView": 1,
      "byteOffset": 469264,
      "componentType": 5126,
      "count": 10035,
      "max": [
        0.9999997615814209,
        0.988732099533081
      ],
      "min": [
        3.1292443054553587e-06,
        0.0471026748418808
      ],
      "type": "VEC2"
    },
    {
      "bufferView": 0,
      "byteOffset": 636024,
      "componentType": 5125,
      "count": 53376,
      "type": "SCALAR"
    }
  ],
  "asset": {
    "extras": {
      "author": "thedigitaltakoyaki (https://sketchfab.com/thedigitaltakoyaki)",
      "license": "CC-BY-NC-SA-4.0 (http://creativecommons.org/licenses/by-nc-sa/4.0/)",
      "source": "https://sketchfab.com/3d-models/one-piece-straw-hat-2-years-a34c41eeeebd4a9392eaa03e58afa05e",
      "title": "One Piece Straw Hat 2 years"
    },
    "generator": "Sketchfab-13.43.0",
    "version": "2.0"
  },
  "bufferViews": [
    {
      "buffer": 0,
      "byteLength": 849528,
      "name": "floatBufferViews",
      "target": 34963
    },
    {
      "buffer": 0,
      "byteLength": 549544,
      "byteOffset": 849528,
      "byteStride": 8,
      "name": "floatBufferViews",
      "target": 34962
    },
    {
      "buffer": 0,
      "byteLength": 984600,
      "byteOffset": 1399072,
      "byteStride": 12,
      "name": "floatBufferViews",
      "target": 34962
    },
    {
      "buffer": 0,
      "byteLength": 467840,
      "byteOffset": 2383672,
      "byteStride": 16,
      "name": "floatBufferViews",
      "target": 34962
    }
  ],
  "buffers": [
    {
      "byteLength": 2851512,
      "uri": "scene.bin"
    }
  ],
  "images": [
    {
      "uri": "textures/straw.001_baseColor.png"
    },
    {
      "uri": "textures/straw.001_metallicRoughness.png"
    },
    {
      "uri": "textures/straw.001_normal.png"
    },
    {
      "uri": "textures/fabric_metallicRoughness.png"
    },
    {
      "uri": "textures/fabric_normal.png"
    },
    {
      "uri": "textures/paper_baseColor.png"
    },
    {
      "uri": "textures/snow_baseColor.png"
    },
    {
      "uri": "textures/snow_normal.png"
    },
    {
      "uri": "textures/stone_baseColor.png"
    },
    {
      "uri": "textures/stone_normal.png"
    }
  ],
  "materials": [
    {
      "doubleSided": true,
      "name": "grass.001",
      "pbrMetallicRoughness": {
        "baseColorFactor": [
          0.0327575,
          0.259798,
          0.10364399999999997,
          1.0
        ],
        "metallicFactor": 0.0,
        "roughnessFactor": 0.5
      }
    },
    {
      "doubleSided": true,
      "name": "straw.001",
      "normalTexture": {
        "index": 2
      },
      "occlusionTexture": {
        "index": 1
      },
      "pbrMetallicRoughness": {
        "baseColorTexture": {
          "index": 0
        },
        "metallicFactor": 0.0,
        "metallicRoughnessTexture": {
          "index": 1
        },
        "roughnessFactor": 0.855263
      }
    },
    {
      "doubleSided": true,
      "name": "fabric",
      "normalTexture": {
        "index": 4
      },
      "occlusionTexture": {
        "index": 3
      },
      "pbrMetallicRoughness": {
        "baseColorFactor": [
          0.7999999999999999,
          0.007606609999999993,
          0.015197500000000046,
          1.0
        ],
        "metallicFactor": 0.0,
        "metallicRoughnessTexture": {
          "index": 3
        },
        "roughnessFactor": 0.7603832697394887
      }
    },
    {
      "doubleSided": true,
      "name": "paper",
      "pbrMetallicRoughness": {
        "baseColorTexture": {
          "index": 5
        },
        "metallicFactor": 0.0,
        "roughnessFactor": 0.5
      }
    },
    {
      "doubleSided": true,
      "name": "snow",
      "normalTexture": {
        "index": 7
      },
      "pbrMetallicRoughness": {
        "baseColorTexture": {
          "index": 6
        },
        "metallicFactor": 0.0,
        "roughnessFactor": 0.1
      }
    },
    {
      "doubleSided": true,
      "name": "stone",
      "normalTexture": {
        "index": 9
      },
      "pbrMetallicRoughness": {
        "baseColorTexture": {
          "index": 8
        },
        "metallicFactor": 0.0,
        "roughnessFactor": 0.599534
      }
    }
  ],
  "meshes": [
    {
      "name": "Object_0",
      "primitives": [
        {
          "attributes": {
            "NORMAL": 1,
            "POSITION": 0,
            "TEXCOORD_0": 2
          },
          "indices": 3,
          "material": 0,
          "mode": 4
        }
      ]
    },
    {
      "name": "Object_1",
      "primitives": [
        {
          "attributes": {
            "NORMAL": 5,
            "POSITION": 4,
            "TANGENT": 6,
            "TEXCOORD_0": 7,
            "TEXCOORD_1": 8
          },
          "indices": 9,
          "material": 1,
          "mode": 4
        }
      ]
    },
    {
      "name": "Object_2",
      "primitives": [
        {
          "attributes": {
            "NORMAL": 11,
            "POSITION": 10,
            "TANGENT": 12,
            "TEXCOORD_0": 13,
            "TEXCOORD_1": 14
          },
          "indices": 15,
          "material": 1,
          "mode": 4
        }
      ]
    },
    {
      "name": "Object_3",
      "primitives": [
        {
          "attributes": {
            "NORMAL": 17,
            "POSITION": 16,
            "TANGENT": 18,
            "TEXCOORD_0": 19
          },
          "indices": 20,
          "material": 2,
          "mode": 4
        }
      ]
    },
    {
      "name": "Object_4",
      "primitives": [
        {
          "attributes": {
            "NORMAL": 22,
            "POSITION": 21,
            "TEXCOORD_0": 23
          },
          "indices": 24,
          "material": 3,
          "mode": 4
        }
      ]
    },
    {
      "name": "Object_5",
      "primitives": [
        {
          "attributes": {
            "NORMAL": 26,
            "POSITION": 25,
            "TANGENT": 27,
            "TEXCOORD_0": 28,
            "TEXCOORD_1": 29
          },
          "indices": 30,
          "material": 4,
          "mode": 4
        }
      ]
    },
    {
      "name": "Object_6",
      "primitives": [
        {
          "attributes": {
            "NORMAL": 32,
            "POSITION": 31,
            "TANGENT": 33,
            "TEXCOORD_0": 34,
            "TEXCOORD_1": 35
          },
          "indices": 36,
          "material": 4,
          "mode": 4
        }
      ]
    },
    {
      "name": "Object_7",
      "primitives": [
        {
          "attributes": {
            "NORMAL": 38,
            "POSITION": 37,
            "TANGENT": 39,
            "TEXCOORD_0": 40,
            "TEXCOORD_1": 41
          },
          "indices": 42,
          "material": 4,
          "mode": 4
        }
      ]
    },
    {
      "name": "Object_8",
      "primitives": [
        {
          "attributes": {
            "NORMAL": 44,
            "POSITION": 43,
            "TANGENT": 45,
            "TEXCOORD_0": 46,
            "TEXCOORD_1": 47
          },
          "indices": 48,
          "material": 5,
          "mode": 4
        }
      ]
    }
  ],
  "nodes": [
    {
      "children": [
        1
      ],
      "matrix": [
        1.0,
        0.0,
        0.0,
        0.0,
        0.0,
        2.220446049250313e-16,
        -1.0,
        0.0,
        0.0,
        1.0,
        2.220446049250313e-16,
        0.0,
        0.0,
        0.0,
        0.0,
        1.0
      ],
      "name": "Sketchfab_model"
    },
    {
      "children": [
        2
      ],
      "name": "root"
    },
    {
      "children": [
        3,
        5,
        7,
        9,
        11,
        13,
        15,
        17,
        19
      ],
      "matrix": [
        1.0,
        0.0,
        0.0,
        0.0,
        0.0,
        2.220446049250313e-16,
        1.0,
        0.0,
        0.0,
        -1.0,
        2.220446049250313e-16,
        0.0,
        0.0,
        0.0,
        0.0,
        1.0
      ],
      "name": "GLTF_SceneRootNode"
    },
    {
      "children": [
        4
      ],
      "name": "grass.001_0"
    },
    {
      "mesh": 0,
      "name": "Object_4"
    },
    {
      "children": [
        6
      ],
      "name": "hat_1"
    },
    {
      "mesh": 1,
      "name": "Object_6"
    },
    {
      "children": [
        8
      ],
      "name": "hat.edge_2"
    },
    {
      "mesh": 2,
      "name": "Object_8"
    },
    {
      "children": [
        10
      ],
      "name": "hat.cloth_3"
    },
    {
      "mesh": 3,
      "name": "Object_10"
    },
    {
      "children": [
        12
      ],
      "name": "paper_4"
    },
    {
      "mesh": 4,
      "name": "Object_12"
    },
    {
      "children": [
        14
      ],
      "name": "snow.001_5"
    },
    {
      "mesh": 5,
      "name": "Object_14"
    },
    {
      "children": [
        16
      ],
      "name": "snow.002_6"
    },
    {
      "mesh": 6,
      "name": "Object_16"
    },
    {
      "children": [
        18
      ],
      "name": "floor_7"
    },
    {
      "mesh": 7,
      "name": "Object_18"
    },
    {
      "children": [
        20
      ],
      "name": "stone.001_8"
    },
    {
      "mesh": 8,
      "name": "Object_20"
    }
  ],
  "samplers": [
    {
      "magFilter": 9729,
      "minFilter": 9987,
      "wrapS": 10497,
      "wrapT": 10497
    }
  ],
  "scene": 0,
  "scenes": [
    {
      "name": "Sketchfab_Scene",
      "nodes": [
        0
      ]
    }
  ],
  "textures": [
    {
      "sampler": 0,
      "source": 0
    },
    {
      "sampler": 0,
      "source": 1
    },
    {
      "sampler": 0,
      "source": 2
    },
    {
      "sampler": 0,
      "source": 3
    },
    {
      "sampler": 0,
      "source": 4
    },
    {
      "sampler": 0,
      "source": 5
    },
    {
      "sampler": 0,
      "source": 6
    },
    {
      "sampler": 0,
      "source": 7
    },
    {
      "sampler": 0,
      "source": 8
    },
    {
      "sampler": 0,
      "source": 9
    }
  ]
}
